<?xml version="1.0" encoding="utf-8"?>
<!-- Generator: Adobe Illustrator 24.2.0, SVG Export Plug-In . SVG Version: 6.00 Build 0)  -->
<svg version="1.1" id="Layer_1" xmlns="http://www.w3.org/2000/svg" xmlns:xlink="http://www.w3.org/1999/xlink" x="0px" y="0px"
	 viewBox="0 0 595.28 841.89" style="enable-background:new 0 0 595.28 841.89;" xml:space="preserve">
<style type="text/css">
	.st0{fill:#D1D3D4;stroke:#000000;stroke-width:15;stroke-miterlimit:10;}
	.st1{fill:#FFFFFF;}
</style>
<path class="st0" d="M91.52,357.97c-4.64,6.2-31.41,43.14-21.03,88.18c11.19,48.57,56.91,69.02,74.43,76.85
	c14.25,6.37,68.91,30.82,112.45,3.24c48.13-30.49,50.96-104.46,32.36-152.09c-4.85-12.41-21.43-54.88-63.91-69.57
	C181.7,289.32,126.67,309.89,91.52,357.97z"/>
<g>
	<path class="st1" d="M212.49,338.14c-13.6-1.57-26.43,0.42-38.25,5.07c-5.9,2.34-11.49,5.36-16.83,8.75
		c-5.33,3.43-10.23,7.5-14.91,11.81c-1.13,1.12-2.25,2.26-3.41,3.35c-1.13,1.13-2.16,2.36-3.25,3.53l-1.62,1.77l-1.54,1.88
		l-3.07,3.76c-3.82,4.82-7.12,10.27-9.94,15.91c-5.69,11.34-8.74,23.66-8.7,37.25l0,0.11c0.01,2.24-1.8,4.06-4.04,4.07
		c-1.65,0-3.07-0.98-3.71-2.39c-3.15-7-4.64-14.87-4.7-22.75c-0.03-1.97,0.14-3.93,0.22-5.92c0.18-1.96,0.48-3.91,0.73-5.88
		c0.39-1.92,0.76-3.87,1.24-5.79c0.52-1.9,1-3.82,1.68-5.67c2.49-7.48,6.02-14.56,10.61-21.14l3.46-4.61l1.74-2.3l1.93-2.17
		c1.31-1.44,2.56-2.92,3.92-4.31c1.38-1.37,2.8-2.7,4.22-4.04l1.06-1l1.13-0.93l2.26-1.86l2.27-1.84c0.76-0.61,1.59-1.13,2.39-1.7
		c1.62-1.1,3.19-2.25,4.84-3.3c1.68-1,3.39-1.96,5.09-2.94c6.9-3.72,14.3-6.53,21.95-8.33c7.68-1.7,15.63-2.21,23.4-1.38
		c7.75,0.85,15.35,3.06,21.95,6.86c1.59,0.91,2.13,2.94,1.22,4.52c-0.68,1.18-1.98,1.79-3.25,1.64L212.49,338.14z"/>
</g>
</svg>
